<?xml version="1.0" standalone="no"?>
<!DOCTYPE svg PUBLIC "-//W3C//DTD SVG 20010904//EN"
 "http://www.w3.org/TR/2001/REC-SVG-20010904/DTD/svg10.dtd">
<svg version="1.0" xmlns="http://www.w3.org/2000/svg"
 width="700.000000pt" height="700.000000pt" viewBox="0 0 700.000000 700.000000"
 preserveAspectRatio="xMidYMid meet">
<metadata>
Created by potrace 1.14, written by Peter Selinger 2001-2017
</metadata>
<g transform="translate(0.000000,700.000000) scale(0.100000,-0.100000)"
fill="#000000" stroke="none">
<path d="M160 6979 c-60 -27 -107 -74 -136 -134 l-24 -50 0 -3295 c0 -3292 0
-3295 21 -3340 27 -60 74 -107 134 -136 l50 -24 3295 0 3295 0 50 24 c60 29
107 76 134 136 21 45 21 48 21 3340 l0 3295 -24 50 c-29 60 -76 107 -136 134
-45 21 -48 21 -3340 21 -3292 0 -3295 0 -3340 -21z m2889 -2681 c399 -780 728
-1414 732 -1410 4 4 223 642 487 1417 l479 1410 912 3 911 2 0 -450 0 -450
-414 0 c-228 0 -417 -3 -419 -7 -2 -5 12 -570 32 -1258 l36 -1250 135 -6 c74
-4 273 -10 442 -14 l308 -7 4 -32 c13 -79 46 -620 39 -626 -7 -6 -2263 -191
-2315 -190 -17 0 -18 28 -18 455 l0 455 132 -5 c334 -14 702 -24 706 -20 5 5
-305 2113 -317 2160 -8 28 -9 29 -17 9 -5 -12 -247 -603 -539 -1313 l-530
-1291 -218 3 -219 2 -721 1327 c-396 731 -722 1326 -724 1324 -2 -1 -39 -491
-83 -1087 -43 -596 -82 -1109 -85 -1139 l-6 -56 408 -27 c224 -15 408 -29 410
-31 9 -9 54 -569 46 -576 -10 -9 -2241 -195 -2249 -188 -4 4 65 894 70 905 1
2 383 -25 666 -46 69 -5 127 -7 129 -5 5 5 -50 2327 -55 2333 -2 2 -184 -15
-404 -39 -220 -24 -403 -41 -406 -38 -5 6 80 1074 92 1146 l5 32 916 -2 917
-3 725 -1417z"/>
</g>
</svg>
